<svg width="542" height="76" viewBox="0 0 542 76" fill="none" xmlns="http://www.w3.org/2000/svg">
<g clip-path="url(#clip0_111_521)">
<path d="M69.8094 17.2062C69.7296 17.0845 69.6499 16.9628 69.568 16.8432H69.5659C67.0225 13.049 63.8139 9.7437 60.1058 7.089C59.9757 6.99456 59.8456 6.90222 59.7134 6.81198C53.6654 2.59174 46.3332 0.0881403 38.4197 0.00209858C38.3484 0.00209858 38.2791 0 38.2099 0.00209858C38.1406 0 38.0714 0 38 0C37.9286 0 37.8594 0 37.7901 0.00209858C37.7209 0 37.6516 0.00209858 37.5803 0.00209858C29.6668 0.0881403 22.3345 2.59174 16.2866 6.81198C16.1544 6.90432 16.0222 6.99666 15.8921 7.089C12.184 9.7458 8.97747 13.049 6.43406 16.8411H6.43196C6.35012 16.9628 6.27038 17.0845 6.19063 17.2062C2.27689 23.1809 0 30.3245 0 38.0011V38.234H0.841507C0.839408 38.1563 0.839408 38.0787 0.839408 38.0011C0.839408 30.6896 2.93583 23.6992 6.84747 17.7204C7.00066 17.4854 7.15595 17.2524 7.31544 17.0216C8.60393 15.1433 10.0771 13.37 11.7244 11.7227C13.1766 10.2704 14.7274 8.95253 16.3622 7.77733C16.6266 7.58846 16.8931 7.40169 17.1617 7.21911C21.9967 3.93064 27.5221 1.84675 33.3623 1.12484C34.7515 0.952754 36.1596 0.858318 37.5803 0.84153C37.6516 0.84153 37.7209 0.839431 37.7901 0.84153C37.8594 0.84153 37.9286 0.839431 38 0.839431C38.0714 0.839431 38.1406 0.84153 38.2099 0.84153C38.2791 0.839431 38.3484 0.84153 38.4197 0.84153C39.8404 0.858318 41.2485 0.952754 42.6377 1.12484C48.4779 1.84675 54.0033 3.93064 58.8383 7.21911C59.1069 7.40169 59.3734 7.58846 59.6378 7.77733C61.2726 8.95253 62.8234 10.2704 64.2756 11.7227C65.9229 13.37 67.3961 15.1433 68.6846 17.0216C68.844 17.2524 68.9993 17.4854 69.1525 17.7204C73.0642 23.6992 75.1606 30.6896 75.1606 38.0011V38.234H76V38.0011C76 30.3245 73.7231 23.1809 69.8094 17.2062Z" fill="#DF2A1E"/>
<path d="M22.9579 60.3572C22.6935 60.1788 22.4186 60.1453 22.1374 60.2544C21.8541 60.3635 21.5771 60.6174 21.3064 61.0141L21.1805 61.2008C20.9161 61.5933 20.7838 61.9458 20.7817 62.2585C20.7796 62.5712 20.914 62.8188 21.1847 63.0014C21.4512 63.1798 21.724 63.2134 22.0073 63.1001C22.2885 62.9888 22.5655 62.7328 22.8362 62.3362L22.9621 62.1494C23.2328 61.7465 23.3671 61.3918 23.3629 61.0875C23.3608 60.7811 23.2265 60.5377 22.9579 60.3572ZM22.9579 60.3572C22.6935 60.1788 22.4186 60.1453 22.1374 60.2544C21.8541 60.3635 21.5771 60.6174 21.3064 61.0141L21.1805 61.2008C20.9161 61.5933 20.7838 61.9458 20.7817 62.2585C20.7796 62.5712 20.914 62.8188 21.1847 63.0014C21.4512 63.1798 21.724 63.2134 22.0073 63.1001C22.2885 62.9888 22.5655 62.7328 22.8362 62.3362L22.9621 62.1494C23.2328 61.7465 23.3671 61.3918 23.3629 61.0875C23.3608 60.7811 23.2265 60.5377 22.9579 60.3572ZM22.9579 60.3572C22.6935 60.1788 22.4186 60.1453 22.1374 60.2544C21.8541 60.3635 21.5771 60.6174 21.3064 61.0141L21.1805 61.2008C20.9161 61.5933 20.7838 61.9458 20.7817 62.2585C20.7796 62.5712 20.914 62.8188 21.1847 63.0014C21.4512 63.1798 21.724 63.2134 22.0073 63.1001C22.2885 62.9888 22.5655 62.7328 22.8362 62.3362L22.9621 62.1494C23.2328 61.7465 23.3671 61.3918 23.3629 61.0875C23.3608 60.7811 23.2265 60.5377 22.9579 60.3572ZM22.9579 60.3572C22.6935 60.1788 22.4186 60.1453 22.1374 60.2544C21.8541 60.3635 21.5771 60.6174 21.3064 61.0141L21.1805 61.2008C20.9161 61.5933 20.7838 61.9458 20.7817 62.2585C20.7796 62.5712 20.914 62.8188 21.1847 63.0014C21.4512 63.1798 21.724 63.2134 22.0073 63.1001C22.2885 62.9888 22.5655 62.7328 22.8362 62.3362L22.9621 62.1494C23.2328 61.7465 23.3671 61.3918 23.3629 61.0875C23.3608 60.7811 23.2265 60.5377 22.9579 60.3572ZM22.9579 60.3572C22.6935 60.1788 22.4186 60.1453 22.1374 60.2544C21.8541 60.3635 21.5771 60.6174 21.3064 61.0141L21.1805 61.2008C20.9161 61.5933 20.7838 61.9458 20.7817 62.2585C20.7796 62.5712 20.914 62.8188 21.1847 63.0014C21.4512 63.1798 21.724 63.2134 22.0073 63.1001C22.2885 62.9888 22.5655 62.7328 22.8362 62.3362L22.9621 62.1494C23.2328 61.7465 23.3671 61.3918 23.3629 61.0875C23.3608 60.7811 23.2265 60.5377 22.9579 60.3572ZM22.9579 60.3572C22.6935 60.1788 22.4186 60.1453 22.1374 60.2544C21.8541 60.3635 21.5771 60.6174 21.3064 61.0141L21.1805 61.2008C20.9161 61.5933 20.7838 61.9458 20.7817 62.2585C20.7796 62.5712 20.914 62.8188 21.1847 63.0014C21.4512 63.1798 21.724 63.2134 22.0073 63.1001C22.2885 62.9888 22.5655 62.7328 22.8362 62.3362L22.9621 62.1494C23.2328 61.7465 23.3671 61.3918 23.3629 61.0875C23.3608 60.7811 23.2265 60.5377 22.9579 60.3572ZM22.9579 60.3572C22.6935 60.1788 22.4186 60.1453 22.1374 60.2544C21.8541 60.3635 21.5771 60.6174 21.3064 61.0141L21.1805 61.2008C20.9161 61.5933 20.7838 61.9458 20.7817 62.2585C20.7796 62.5712 20.914 62.8188 21.1847 63.0014C21.4512 63.1798 21.724 63.2134 22.0073 63.1001C22.2885 62.9888 22.5655 62.7328 22.8362 62.3362L22.9621 62.1494C23.2328 61.7465 23.3671 61.3918 23.3629 61.0875C23.3608 60.7811 23.2265 60.5377 22.9579 60.3572ZM22.9579 60.3572C22.6935 60.1788 22.4186 60.1453 22.1374 60.2544C21.8541 60.3635 21.5771 60.6174 21.3064 61.0141L21.1805 61.2008C20.9161 61.5933 20.7838 61.9458 20.7817 62.2585C20.7796 62.5712 20.914 62.8188 21.1847 63.0014C21.4512 63.1798 21.724 63.2134 22.0073 63.1001C22.2885 62.9888 22.5655 62.7328 22.8362 62.3362L22.9621 62.1494C23.2328 61.7465 23.3671 61.3918 23.3629 61.0875C23.3608 60.7811 23.2265 60.5377 22.9579 60.3572ZM22.9579 60.3572C22.6935 60.1788 22.4186 60.1453 22.1374 60.2544C21.8541 60.3635 21.5771 60.6174 21.3064 61.0141L21.1805 61.2008C20.9161 61.5933 20.7838 61.9458 20.7817 62.2585C20.7796 62.5712 20.914 62.8188 21.1847 63.0014C21.4512 63.1798 21.724 63.2134 22.0073 63.1001C22.2885 62.9888 22.5655 62.7328 22.8362 62.3362L22.9621 62.1494C23.2328 61.7465 23.3671 61.3918 23.3629 61.0875C23.3608 60.7811 23.2265 60.5377 22.9579 60.3572ZM22.9579 60.3572C22.6935 60.1788 22.4186 60.1453 22.1374 60.2544C21.8541 60.3635 21.5771 60.6174 21.3064 61.0141L21.1805 61.2008C20.9161 61.5933 20.7838 61.9458 20.7817 62.2585C20.7796 62.5712 20.914 62.8188 21.1847 63.0014C21.4512 63.1798 21.724 63.2134 22.0073 63.1001C22.2885 62.9888 22.5655 62.7328 22.8362 62.3362L22.9621 62.1494C23.2328 61.7465 23.3671 61.3918 23.3629 61.0875C23.3608 60.7811 23.2265 60.5377 22.9579 60.3572ZM22.9579 60.3572C22.6935 60.1788 22.4186 60.1453 22.1374 60.2544C21.8541 60.3635 21.5771 60.6174 21.3064 61.0141L21.1805 61.2008C20.9161 61.5933 20.7838 61.9458 20.7817 62.2585C20.7796 62.5712 20.914 62.8188 21.1847 63.0014C21.4512 63.1798 21.724 63.2134 22.0073 63.1001C22.2885 62.9888 22.5655 62.7328 22.8362 62.3362L22.9621 62.1494C23.2328 61.7465 23.3671 61.3918 23.3629 61.0875C23.3608 60.7811 23.2265 60.5377 22.9579 60.3572ZM22.9579 60.3572C22.6935 60.1788 22.4186 60.1453 22.1374 60.2544C21.8541 60.3635 21.5771 60.6174 21.3064 61.0141L21.1805 61.2008C20.9161 61.5933 20.7838 61.9458 20.7817 62.2585C20.7796 62.5712 20.914 62.8188 21.1847 63.0014C21.4512 63.1798 21.724 63.2134 22.0073 63.1001C22.2885 62.9888 22.5655 62.7328 22.8362 62.3362L22.9621 62.1494C23.2328 61.7465 23.3671 61.3918 23.3629 61.0875C23.3608 60.7811 23.2265 60.5377 22.9579 60.3572ZM22.9579 60.3572C22.6935 60.1788 22.4186 60.1453 22.1374 60.2544C21.8541 60.3635 21.5771 60.6174 21.3064 61.0141L21.1805 61.2008C20.9161 61.5933 20.7838 61.9458 20.7817 62.2585C20.7796 62.5712 20.914 62.8188 21.1847 63.0014C21.4512 63.1798 21.724 63.2134 22.0073 63.1001C22.2885 62.9888 22.5655 62.7328 22.8362 62.3362L22.9621 62.1494C23.2328 61.7465 23.3671 61.3918 23.3629 61.0875C23.3608 60.7811 23.2265 60.5377 22.9579 60.3572ZM22.9579 60.3572C22.6935 60.1788 22.4186 60.1453 22.1374 60.2544C21.8541 60.3635 21.5771 60.6174 21.3064 61.0141L21.1805 61.2008C20.9161 61.5933 20.7838 61.9458 20.7817 62.2585C20.7796 62.5712 20.914 62.8188 21.1847 63.0014C21.4512 63.1798 21.724 63.2134 22.0073 63.1001C22.2885 62.9888 22.5655 62.7328 22.8362 62.3362L22.9621 62.1494C23.2328 61.7465 23.3671 61.3918 23.3629 61.0875C23.3608 60.7811 23.2265 60.5377 22.9579 60.3572ZM22.9579 60.3572C22.6935 60.1788 22.4186 60.1453 22.1374 60.2544C21.8541 60.3635 21.5771 60.6174 21.3064 61.0141L21.1805 61.2008C20.9161 61.5933 20.7838 61.9458 20.7817 62.2585C20.7796 62.5712 20.914 62.8188 21.1847 63.0014C21.4512 63.1798 21.724 63.2134 22.0073 63.1001C22.2885 62.9888 22.5655 62.7328 22.8362 62.3362L22.9621 62.1494C23.2328 61.7465 23.3671 61.3918 23.3629 61.0875C23.3608 60.7811 23.2265 60.5377 22.9579 60.3572ZM22.9579 60.3572C22.6935 60.1788 22.4186 60.1453 22.1374 60.2544C21.8541 60.3635 21.5771 60.6174 21.3064 61.0141L21.1805 61.2008C20.9161 61.5933 20.7838 61.9458 20.7817 62.2585C20.7796 62.5712 20.914 62.8188 21.1847 63.0014C21.4512 63.1798 21.724 63.2134 22.0073 63.1001C22.2885 62.9888 22.5655 62.7328 22.8362 62.3362L22.9621 62.1494C23.2328 61.7465 23.3671 61.3918 23.3629 61.0875C23.3608 60.7811 23.2265 60.5377 22.9579 60.3572ZM71.6226 40.3284L75.8784 40.9265C75.9455 40.0367 75.9833 39.1385 75.9875 38.234H51.7475C51.6279 45.7238 45.5191 51.7593 38.0001 51.7593C30.4811 51.7593 24.3723 45.7238 24.2527 38.234H0.0126953C0.0189909 39.1826 0.0588628 40.1227 0.132311 41.0524L4.52032 40.4354C6.50552 41.6694 6.71327 43.1531 5.14568 44.8865L0.751374 45.5035C1.11022 47.3041 1.59708 49.0585 2.20145 50.7562L6.29147 49.0186C8.52849 49.6964 9.11398 51.0752 8.04793 53.157L3.95791 54.8925C4.77004 56.5273 5.69759 58.0929 6.72586 59.5828L10.2241 56.8505C12.5597 56.926 13.481 58.1075 12.9899 60.3929L9.49591 63.1231C10.6984 64.4872 11.9952 65.7632 13.3782 66.9405L16.0475 63.3981C18.3244 62.8671 19.5205 63.7674 19.6381 66.1031L16.9666 69.6497C18.4734 70.6549 20.0578 71.5531 21.7051 72.338L23.3692 68.2143C25.43 67.1104 26.8192 67.6729 27.5369 69.8974L25.8707 74.0211C27.5768 74.5982 29.3395 75.0536 31.1463 75.383L31.6878 70.9718C33.3939 69.3727 34.8796 69.5553 36.1492 71.5196L35.6078 75.9266C36.3989 75.9748 37.1964 76 38.0001 76C38.8038 76 39.6013 75.9748 40.3924 75.9266L39.851 71.5196C41.1206 69.5553 42.6064 69.3727 44.3125 70.9718L44.8539 75.383C46.6733 75.0515 48.4465 74.5919 50.1652 74.0106L48.5011 69.8932C49.2188 67.6687 50.608 67.1062 52.6688 68.208L54.3287 72.3212C55.9865 71.53 57.5793 70.6235 59.0944 69.6098L56.4356 66.0821C56.551 63.7485 57.7493 62.8461 60.0241 63.3771L62.6745 66.8943C64.0637 65.7086 65.3648 64.4243 66.5694 63.0497L63.1131 60.3488C62.622 58.0635 63.5433 56.8841 65.881 56.8085L69.3289 59.5031C70.3593 58.0047 71.2826 56.4308 72.0948 54.7876L68.0803 53.0835C67.0143 51.0018 67.5997 49.623 69.8368 48.9451L73.8386 50.645C74.4367 48.9431 74.9194 47.1844 75.274 45.3797L70.9972 44.7795C69.4275 43.046 69.6374 41.5624 71.6226 40.3284ZM38.1386 54.4602L39.0787 53.5851H39.6118L40.5645 54.4728V54.5106H39.8342L39.3453 54.051L38.8563 54.5127H38.1386V54.4602ZM19.2666 58.6133L18.6056 57.925C18.8049 57.7025 18.9036 57.4927 18.9036 57.2954C18.9015 57.1002 18.7986 56.8967 18.5972 56.6847C18.3768 56.456 18.1292 56.3636 17.8564 56.4077C17.5836 56.4497 17.273 56.6364 16.9247 56.9638L16.6707 57.2073C16.3098 57.5514 16.1 57.8599 16.037 58.1285C15.9761 58.3971 16.058 58.6511 16.2825 58.8861C16.4882 59.0981 16.6875 59.2093 16.8848 59.2219C17.0821 59.2324 17.2898 59.1484 17.5081 58.9701L18.167 59.6584C17.783 59.9753 17.3738 60.1138 16.9373 60.0739C16.5029 60.0319 16.0958 59.8158 15.7222 59.4233C15.3109 58.9952 15.1325 58.521 15.185 58.0005C15.2375 57.478 15.5166 56.9764 16.0202 56.4937L16.2238 56.2986C16.5448 55.9901 16.8806 55.776 17.2353 55.6543C17.5878 55.5326 17.9299 55.5158 18.2614 55.5997C18.5951 55.6837 18.8931 55.8663 19.1617 56.1454C19.531 56.5294 19.7241 56.9386 19.743 57.373C19.7619 57.8053 19.6045 58.2188 19.2666 58.6133ZM24.2275 61.5597C24.1688 61.9374 24.0135 62.3152 23.7616 62.6908L23.6462 62.8629C23.3902 63.2407 23.1006 63.5261 22.7753 63.7212C22.4522 63.9143 22.1122 64.0066 21.7597 63.9941C21.4071 63.9794 21.0692 63.866 20.7482 63.6499C20.4313 63.4337 20.1984 63.1672 20.0515 62.8461C19.9067 62.525 19.8605 62.1767 19.913 61.801C19.9675 61.4254 20.1186 61.0518 20.3662 60.6825L20.4922 60.4936C20.7482 60.1159 21.0399 59.8284 21.3693 59.6332C21.6988 59.438 22.0388 59.3478 22.3913 59.3604C22.7439 59.3751 23.0796 59.4884 23.3986 59.7046C23.7197 59.9207 23.9505 60.1872 24.0953 60.5104C24.2401 60.8315 24.2842 61.1799 24.2275 61.5597ZM24.5507 60.1788L23.9442 59.7717L23.7952 59.117L23.1321 59.2261L22.5382 58.8232L22.5655 58.7812L23.8351 58.5818L24.2779 58.8798L24.5717 60.1474L24.5507 60.1788ZM28.5484 67.4294L27.6586 67.0832L27.0374 63.5743L25.9315 66.4095L25.0438 66.0632L26.7227 61.7528L27.6103 62.099L28.2357 65.6163L29.3416 62.7748L30.2272 63.1189L28.5484 67.4294ZM31.5031 59.4569L29.8998 54.8317H30.9575L32.0004 58.3111L33.0476 54.8317H34.1094L32.4978 59.4569H31.5031ZM35.6414 65.6519L34.7243 65.5134C34.7222 65.2448 34.6593 65.0391 34.5334 64.8964C34.4095 64.7537 34.2207 64.6635 33.9688 64.6236C33.6499 64.5754 33.3876 64.6593 33.1819 64.8755C32.9783 65.0895 32.8398 65.4358 32.7643 65.9101L32.7202 66.2018C32.6489 66.6823 32.6846 67.058 32.8294 67.3308C32.9742 67.6036 33.2218 67.7652 33.5743 67.8198C33.929 67.8722 34.1913 67.8366 34.3655 67.7085L34.4851 66.9195L33.6268 66.7894L33.7338 66.0947L35.5322 66.3696L35.2552 68.1933C35.0559 68.3717 34.7915 68.4913 34.4641 68.5564C34.1388 68.6214 33.7863 68.6256 33.4085 68.569C33.014 68.5081 32.6804 68.3696 32.4076 68.1513C32.1347 67.9331 31.9438 67.6477 31.8305 67.2951C31.7192 66.9405 31.6941 66.5417 31.757 66.0968L31.8032 65.7862C31.8724 65.3308 32.0109 64.9468 32.2145 64.6362C32.4201 64.3256 32.6804 64.1032 32.9972 63.971C33.3141 63.8388 33.6667 63.801 34.057 63.8597C34.5984 63.9416 35.0034 64.1368 35.2699 64.4411C35.5364 64.7453 35.6603 65.1504 35.6414 65.6519ZM36.208 59.4569H35.2552V54.8317H36.208V59.4569ZM39.7209 60.4831C39.6286 60.5692 39.5026 60.6111 39.3495 60.6111C39.1963 60.6111 39.0704 60.5692 38.978 60.4831C38.8836 60.3992 38.8374 60.2943 38.8374 60.1683C38.8374 60.0424 38.8857 59.9375 38.9801 59.8557C39.0746 59.7717 39.1984 59.7318 39.3495 59.7318C39.5005 59.7318 39.6244 59.7717 39.7209 59.8557C39.8153 59.9375 39.8636 60.0424 39.8636 60.1683C39.8636 60.2943 39.8153 60.3992 39.7209 60.4831ZM40.8415 59.4569H37.742V54.8317H40.8352V55.6039H38.6947V56.7057H40.5246V57.4528H38.6947V58.693H40.8415V59.4569ZM44.5349 68.1639L42.1594 65.5071L42.7113 68.4997L41.7753 68.6739L40.9359 64.1242L41.874 63.9521L44.2537 66.6131L43.6997 63.6142L44.6356 63.4421L45.4729 67.9918L44.5349 68.1639ZM45.8129 59.4569H44.8602L43.0051 56.414V59.4569H42.0503V54.8317H43.0051L44.8623 57.883V54.8317H45.8129V59.4569ZM51.097 65.8387C50.8514 66.0654 50.5556 66.2542 50.2051 66.4053C49.8358 66.5606 49.479 66.6194 49.1328 66.5774C48.7865 66.5354 48.4738 66.3927 48.1926 66.1514C47.9114 65.9101 47.6806 65.5827 47.5001 65.1714L47.3763 64.8838C47.1958 64.4578 47.1098 64.0612 47.1203 63.6877C47.1308 63.3162 47.2357 62.9909 47.4351 62.7118C47.6344 62.4306 47.9156 62.2145 48.2787 62.0592C48.7823 61.8451 49.2272 61.7968 49.6154 61.9165C50.0015 62.034 50.3205 62.3131 50.5681 62.7496L49.7161 63.1147C49.5734 62.8881 49.4098 62.7454 49.2293 62.6908C49.0467 62.6342 48.839 62.6552 48.606 62.7559C48.308 62.8818 48.1297 63.0917 48.0688 63.3813C48.0079 63.673 48.0709 64.0402 48.2577 64.483L48.3752 64.7537C48.5641 65.2007 48.7928 65.5008 49.0593 65.6561C49.3258 65.8114 49.6238 65.8198 49.9512 65.6813C50.2806 65.5407 50.4842 65.3686 50.566 65.1693L50.2513 64.4368L49.4538 64.7768L49.1789 64.1305L50.8535 63.4169L51.5775 65.1147C51.4999 65.3707 51.3404 65.6121 51.097 65.8387ZM56.7063 54.5484L58.0053 54.4476L58.0326 54.4728L57.5394 55.0121L56.87 55.0604L56.8784 55.732L56.3915 56.2608L56.3538 56.2272L56.3454 54.9408L56.7063 54.5484ZM56.7378 62.5209L55.5794 60.9112L54.0706 61.9962L55.229 63.6058L54.4546 64.1619L51.7538 60.4055L52.5282 59.8494L53.6236 61.3708L55.1324 60.2859L54.037 58.7644L54.8114 58.2083L57.51 61.9647L56.7378 62.5209ZM61.7029 59.4968C61.598 59.6101 61.4846 59.6731 61.3587 59.6836C61.2328 59.6941 61.1237 59.6584 61.0314 59.5744C60.939 59.4884 60.8929 59.3814 60.8971 59.2555C60.9013 59.1295 60.9537 59.012 61.0544 58.9008C61.1594 58.7875 61.2727 58.7245 61.3986 58.7098C61.5224 58.6972 61.6336 58.7329 61.726 58.819C61.8183 58.9029 61.8645 59.0078 61.8624 59.1358C61.8603 59.2618 61.8078 59.3814 61.7029 59.4968ZM59.766 59.8997L56.3601 56.7707L58.4544 54.4917L59.021 55.0142L57.573 56.5924L58.3851 57.3374L59.6233 55.9901L60.1731 56.4937L58.9349 57.841L59.8478 58.6805L61.3 57.0981L61.8645 57.6165L59.766 59.8997ZM22.9579 60.3572C22.6935 60.1788 22.4186 60.1453 22.1374 60.2544C21.8541 60.3635 21.5771 60.6174 21.3064 61.0141L21.1805 61.2008C20.9161 61.5933 20.7838 61.9458 20.7817 62.2585C20.7796 62.5712 20.914 62.8188 21.1847 63.0014C21.4512 63.1798 21.724 63.2134 22.0073 63.1001C22.2885 62.9888 22.5655 62.7328 22.8362 62.3362L22.9621 62.1494C23.2328 61.7465 23.3671 61.3918 23.3629 61.0875C23.3608 60.7811 23.2265 60.5377 22.9579 60.3572ZM22.9579 60.3572C22.6935 60.1788 22.4186 60.1453 22.1374 60.2544C21.8541 60.3635 21.5771 60.6174 21.3064 61.0141L21.1805 61.2008C20.9161 61.5933 20.7838 61.9458 20.7817 62.2585C20.7796 62.5712 20.914 62.8188 21.1847 63.0014C21.4512 63.1798 21.724 63.2134 22.0073 63.1001C22.2885 62.9888 22.5655 62.7328 22.8362 62.3362L22.9621 62.1494C23.2328 61.7465 23.3671 61.3918 23.3629 61.0875C23.3608 60.7811 23.2265 60.5377 22.9579 60.3572ZM22.9579 60.3572C22.6935 60.1788 22.4186 60.1453 22.1374 60.2544C21.8541 60.3635 21.5771 60.6174 21.3064 61.0141L21.1805 61.2008C20.9161 61.5933 20.7838 61.9458 20.7817 62.2585C20.7796 62.5712 20.914 62.8188 21.1847 63.0014C21.4512 63.1798 21.724 63.2134 22.0073 63.1001C22.2885 62.9888 22.5655 62.7328 22.8362 62.3362L22.9621 62.1494C23.2328 61.7465 23.3671 61.3918 23.3629 61.0875C23.3608 60.7811 23.2265 60.5377 22.9579 60.3572ZM22.9579 60.3572C22.6935 60.1788 22.4186 60.1453 22.1374 60.2544C21.8541 60.3635 21.5771 60.6174 21.3064 61.0141L21.1805 61.2008C20.9161 61.5933 20.7838 61.9458 20.7817 62.2585C20.7796 62.5712 20.914 62.8188 21.1847 63.0014C21.4512 63.1798 21.724 63.2134 22.0073 63.1001C22.2885 62.9888 22.5655 62.7328 22.8362 62.3362L22.9621 62.1494C23.2328 61.7465 23.3671 61.3918 23.3629 61.0875C23.3608 60.7811 23.2265 60.5377 22.9579 60.3572ZM22.9579 60.3572C22.6935 60.1788 22.4186 60.1453 22.1374 60.2544C21.8541 60.3635 21.5771 60.6174 21.3064 61.0141L21.1805 61.2008C20.9161 61.5933 20.7838 61.9458 20.7817 62.2585C20.7796 62.5712 20.914 62.8188 21.1847 63.0014C21.4512 63.1798 21.724 63.2134 22.0073 63.1001C22.2885 62.9888 22.5655 62.7328 22.8362 62.3362L22.9621 62.1494C23.2328 61.7465 23.3671 61.3918 23.3629 61.0875C23.3608 60.7811 23.2265 60.5377 22.9579 60.3572ZM22.9579 60.3572C22.6935 60.1788 22.4186 60.1453 22.1374 60.2544C21.8541 60.3635 21.5771 60.6174 21.3064 61.0141L21.1805 61.2008C20.9161 61.5933 20.7838 61.9458 20.7817 62.2585C20.7796 62.5712 20.914 62.8188 21.1847 63.0014C21.4512 63.1798 21.724 63.2134 22.0073 63.1001C22.2885 62.9888 22.5655 62.7328 22.8362 62.3362L22.9621 62.1494C23.2328 61.7465 23.3671 61.3918 23.3629 61.0875C23.3608 60.7811 23.2265 60.5377 22.9579 60.3572ZM22.9579 60.3572C22.6935 60.1788 22.4186 60.1453 22.1374 60.2544C21.8541 60.3635 21.5771 60.6174 21.3064 61.0141L21.1805 61.2008C20.9161 61.5933 20.7838 61.9458 20.7817 62.2585C20.7796 62.5712 20.914 62.8188 21.1847 63.0014C21.4512 63.1798 21.724 63.2134 22.0073 63.1001C22.2885 62.9888 22.5655 62.7328 22.8362 62.3362L22.9621 62.1494C23.2328 61.7465 23.3671 61.3918 23.3629 61.0875C23.3608 60.7811 23.2265 60.5377 22.9579 60.3572ZM22.9579 60.3572C22.6935 60.1788 22.4186 60.1453 22.1374 60.2544C21.8541 60.3635 21.5771 60.6174 21.3064 61.0141L21.1805 61.2008C20.9161 61.5933 20.7838 61.9458 20.7817 62.2585C20.7796 62.5712 20.914 62.8188 21.1847 63.0014C21.4512 63.1798 21.724 63.2134 22.0073 63.1001C22.2885 62.9888 22.5655 62.7328 22.8362 62.3362L22.9621 62.1494C23.2328 61.7465 23.3671 61.3918 23.3629 61.0875C23.3608 60.7811 23.2265 60.5377 22.9579 60.3572ZM22.9579 60.3572C22.6935 60.1788 22.4186 60.1453 22.1374 60.2544C21.8541 60.3635 21.5771 60.6174 21.3064 61.0141L21.1805 61.2008C20.9161 61.5933 20.7838 61.9458 20.7817 62.2585C20.7796 62.5712 20.914 62.8188 21.1847 63.0014C21.4512 63.1798 21.724 63.2134 22.0073 63.1001C22.2885 62.9888 22.5655 62.7328 22.8362 62.3362L22.9621 62.1494C23.2328 61.7465 23.3671 61.3918 23.3629 61.0875C23.3608 60.7811 23.2265 60.5377 22.9579 60.3572ZM22.9579 60.3572C22.6935 60.1788 22.4186 60.1453 22.1374 60.2544C21.8541 60.3635 21.5771 60.6174 21.3064 61.0141L21.1805 61.2008C20.9161 61.5933 20.7838 61.9458 20.7817 62.2585C20.7796 62.5712 20.914 62.8188 21.1847 63.0014C21.4512 63.1798 21.724 63.2134 22.0073 63.1001C22.2885 62.9888 22.5655 62.7328 22.8362 62.3362L22.9621 62.1494C23.2328 61.7465 23.3671 61.3918 23.3629 61.0875C23.3608 60.7811 23.2265 60.5377 22.9579 60.3572ZM22.9579 60.3572C22.6935 60.1788 22.4186 60.1453 22.1374 60.2544C21.8541 60.3635 21.5771 60.6174 21.3064 61.0141L21.1805 61.2008C20.9161 61.5933 20.7838 61.9458 20.7817 62.2585C20.7796 62.5712 20.914 62.8188 21.1847 63.0014C21.4512 63.1798 21.724 63.2134 22.0073 63.1001C22.2885 62.9888 22.5655 62.7328 22.8362 62.3362L22.9621 62.1494C23.2328 61.7465 23.3671 61.3918 23.3629 61.0875C23.3608 60.7811 23.2265 60.5377 22.9579 60.3572ZM22.9579 60.3572C22.6935 60.1788 22.4186 60.1453 22.1374 60.2544C21.8541 60.3635 21.5771 60.6174 21.3064 61.0141L21.1805 61.2008C20.9161 61.5933 20.7838 61.9458 20.7817 62.2585C20.7796 62.5712 20.914 62.8188 21.1847 63.0014C21.4512 63.1798 21.724 63.2134 22.0073 63.1001C22.2885 62.9888 22.5655 62.7328 22.8362 62.3362L22.9621 62.1494C23.2328 61.7465 23.3671 61.3918 23.3629 61.0875C23.3608 60.7811 23.2265 60.5377 22.9579 60.3572ZM22.9579 60.3572C22.6935 60.1788 22.4186 60.1453 22.1374 60.2544C21.8541 60.3635 21.5771 60.6174 21.3064 61.0141L21.1805 61.2008C20.9161 61.5933 20.7838 61.9458 20.7817 62.2585C20.7796 62.5712 20.914 62.8188 21.1847 63.0014C21.4512 63.1798 21.724 63.2134 22.0073 63.1001C22.2885 62.9888 22.5655 62.7328 22.8362 62.3362L22.9621 62.1494C23.2328 61.7465 23.3671 61.3918 23.3629 61.0875C23.3608 60.7811 23.2265 60.5377 22.9579 60.3572ZM22.9579 60.3572C22.6935 60.1788 22.4186 60.1453 22.1374 60.2544C21.8541 60.3635 21.5771 60.6174 21.3064 61.0141L21.1805 61.2008C20.9161 61.5933 20.7838 61.9458 20.7817 62.2585C20.7796 62.5712 20.914 62.8188 21.1847 63.0014C21.4512 63.1798 21.724 63.2134 22.0073 63.1001C22.2885 62.9888 22.5655 62.7328 22.8362 62.3362L22.9621 62.1494C23.2328 61.7465 23.3671 61.3918 23.3629 61.0875C23.3608 60.7811 23.2265 60.5377 22.9579 60.3572ZM22.9579 60.3572C22.6935 60.1788 22.4186 60.1453 22.1374 60.2544C21.8541 60.3635 21.5771 60.6174 21.3064 61.0141L21.1805 61.2008C20.9161 61.5933 20.7838 61.9458 20.7817 62.2585C20.7796 62.5712 20.914 62.8188 21.1847 63.0014C21.4512 63.1798 21.724 63.2134 22.0073 63.1001C22.2885 62.9888 22.5655 62.7328 22.8362 62.3362L22.9621 62.1494C23.2328 61.7465 23.3671 61.3918 23.3629 61.0875C23.3608 60.7811 23.2265 60.5377 22.9579 60.3572Z" fill="#DF2A1E"/>
<path d="M37.9999 28.8115C26.2985 28.8115 15.2897 24.9648 6.16113 17.6848L6.68366 17.028C15.6632 24.1883 26.4916 27.972 37.9999 27.972C49.5082 27.972 60.3365 24.1883 69.3161 17.028L69.8386 17.6848C60.7101 24.9648 49.6991 28.8115 37.9999 28.8115Z" fill="#DF2A1E"/>
<path d="M20.0952 14.7611C20.0113 14.3414 19.8245 13.9825 19.5349 13.6845C19.2474 13.3865 18.7375 13.034 18.0051 12.631L15.4952 11.246L15.3924 11.4348L15.6505 11.5775C15.9108 11.7223 16.066 11.9049 16.1164 12.1253C16.1542 12.2827 16.0535 12.5786 15.8142 13.013L13.359 17.4641C13.1407 17.8565 12.9686 18.0852 12.8406 18.1524C12.6098 18.272 12.3496 18.2531 12.0579 18.0915L11.7998 17.9488L11.6948 18.1377L14.6474 19.7641L14.7503 19.5773L14.4817 19.4283C14.2235 19.2856 14.0724 19.1051 14.0263 18.8848C13.9885 18.7274 14.0892 18.4336 14.3285 17.9992L15.4323 15.9972C15.4848 16.0307 15.5372 16.0622 15.5876 16.0916C15.6358 16.121 15.6841 16.1482 15.7282 16.1734C15.8352 16.2322 15.9779 16.3056 16.1542 16.3959L16.7103 20.9036L18.5507 21.9172L18.6535 21.7305C18.2989 21.4807 18.047 21.2184 17.896 20.9414C17.7449 20.6623 17.6315 20.2069 17.556 19.5731L17.2244 16.8114C17.8729 17.0024 18.4227 17.0192 18.8718 16.8597C19.3187 16.7002 19.6587 16.4085 19.8937 15.9846C20.112 15.5879 20.1791 15.1808 20.0952 14.7611ZM18.7144 15.42C18.4709 15.8607 18.1037 16.1315 17.6127 16.2322C17.1216 16.3329 16.5487 16.2007 15.8919 15.8398C15.8604 15.823 15.8226 15.7999 15.7764 15.7726C15.7303 15.7453 15.6736 15.7117 15.6107 15.6761L17.1908 12.8115C17.5623 12.9311 17.8456 13.0466 18.0407 13.1536C18.4856 13.3991 18.7668 13.7307 18.8886 14.1483C19.0082 14.5659 18.9515 14.9898 18.7144 15.42Z" fill="#DF2A1E"/>
<path d="M29.1191 17.0403L29.0813 17.2501L29.3541 17.3005C29.5367 17.3341 29.7046 17.4117 29.8557 17.5355C29.9606 17.6258 30.0235 17.7202 30.0445 17.8231C30.0697 17.9574 30.0466 18.2218 29.9753 18.6121L29.0561 23.613C28.9701 24.0768 28.8715 24.3622 28.7581 24.4672C28.5777 24.6266 28.33 24.677 28.009 24.6182L27.7362 24.5679L27.6963 24.7798L31.012 25.3884L31.0518 25.1765L30.7727 25.1261C30.5901 25.0925 30.4244 25.0149 30.2775 24.8932C30.1683 24.8029 30.1033 24.7064 30.0844 24.6036C30.0571 24.4692 30.0802 24.2069 30.1516 23.8145L31.0707 18.8157C31.1567 18.3498 31.2575 18.0665 31.375 17.9616C31.5534 17.8021 31.801 17.7517 32.1179 17.8084L32.397 17.8608L32.4347 17.6489L29.1191 17.0403Z" fill="#DF2A1E"/>
<path d="M46.4027 17.267L40.0295 18.0812L40.1722 19.9238L40.3905 19.8965C40.3716 19.5397 40.422 19.248 40.5374 19.0235C40.6528 18.7968 40.806 18.6352 40.9949 18.5366C41.1418 18.4632 41.3978 18.4044 41.7629 18.3561L42.701 18.2365L43.4627 24.2007C43.5173 24.6372 43.511 24.9226 43.4438 25.0569C43.3305 25.2751 43.1102 25.4032 42.7786 25.4451L42.5037 25.4808L42.531 25.6949L45.8403 25.2709L45.8131 25.059L45.5424 25.0926C45.2381 25.1324 45.003 25.08 44.8373 24.9373C44.7197 24.8323 44.6295 24.5385 44.5686 24.0601L43.8048 18.0959L44.9044 17.9553C45.2276 17.9133 45.4941 17.9343 45.7039 18.0141C45.9159 18.0938 46.0943 18.2386 46.2433 18.4464C46.3335 18.5744 46.4195 18.7968 46.5035 19.1137L46.7217 19.0864L46.4027 17.267Z" fill="#DF2A1E"/>
<path d="M66.0067 16.9228L65.7696 17.0571C65.501 17.2103 65.2638 17.2523 65.0582 17.183C64.905 17.1327 64.7077 16.8976 64.4685 16.4779L61.9188 12.0121C61.7005 11.6302 61.5977 11.3637 61.6103 11.2126C61.6313 10.9691 61.7887 10.7635 62.0804 10.5977L62.3175 10.4634L62.2105 10.2766L60.2756 11.3805L60.8905 18.1211L55.3567 14.1905L53.4219 15.2943L53.5289 15.4811C53.808 15.3216 54.0283 15.2397 54.192 15.2335C54.3557 15.2272 54.4879 15.2586 54.5908 15.3279C54.7356 15.4244 54.8929 15.6238 55.065 15.926L57.6147 20.3918C57.8351 20.7737 57.9379 21.0402 57.9253 21.1892C57.9043 21.4348 57.749 21.6383 57.4594 21.8041L57.2181 21.9405L57.3251 22.1273L59.7027 20.7695L59.5957 20.5827L59.3544 20.7212C59.0858 20.8744 58.8486 20.9164 58.643 20.8471C58.494 20.7947 58.2988 20.5575 58.0596 20.1378L55.4511 15.5713L61.3753 19.8146L61.541 19.7181L60.8947 12.4633L63.5011 17.0298C63.7193 17.4118 63.8221 17.6783 63.8095 17.8294C63.7928 18.0707 63.6375 18.2743 63.3458 18.4422L63.1044 18.5807L63.2094 18.7675L66.1116 17.1096L66.0067 16.9228Z" fill="#DF2A1E"/>
<path d="M60.2886 7.46665C60.0724 7.57158 59.8542 7.67441 59.638 7.77724C56.9519 9.03428 54.1924 10.0479 51.3678 10.8097C51.0908 10.8873 50.8138 10.9587 50.5347 11.0279C46.6062 12.0206 42.5582 12.5368 38.4199 12.5683C38.2793 12.5683 38.1408 12.5683 38.0002 12.5683C37.8596 12.5683 37.7211 12.5683 37.5805 12.5683C33.4422 12.5368 29.3942 12.0206 25.4657 11.0279C25.1866 10.9587 24.9096 10.8873 24.6326 10.8097C21.808 10.0479 19.0464 9.03638 16.3624 7.77724C16.1441 7.6765 15.928 7.57158 15.7097 7.46665L15.8923 7.0889C16.0224 6.99656 16.1546 6.90423 16.2868 6.81189C16.5764 6.95249 16.8681 7.0889 17.1619 7.21901C19.7221 8.39002 22.3494 9.33438 25.0376 10.0479C25.3167 10.1234 25.5958 10.1969 25.8749 10.2661C29.6712 11.2063 33.5849 11.6974 37.5805 11.7289C37.7211 11.7289 37.8596 11.7289 38.0002 11.7289C38.1408 11.7289 38.2793 11.7289 38.4199 11.7289C42.4155 11.6974 46.3292 11.2063 50.1254 10.2661C50.4045 10.1969 50.6837 10.1234 50.9628 10.0479C53.651 9.33438 56.2783 8.39002 58.8385 7.21901C59.1323 7.0889 59.424 6.95249 59.7136 6.81189C59.8458 6.90213 59.9759 6.99447 60.106 7.0889L60.2886 7.46665Z" fill="#DF2A1E"/>
<path d="M55.9988 25.0738C55.9463 24.7926 55.8939 24.5135 55.8393 24.2344C54.8404 19.1327 53.3043 14.5662 51.3674 10.8098C51.2331 10.5516 51.0988 10.2977 50.9623 10.048C48.6435 5.80467 45.7958 2.68618 42.6375 1.12484C41.2819 0.455391 39.8717 0.0734502 38.4195 0.0104929C38.3502 0.00629573 38.281 0.00419716 38.2096 0.00209858C38.1404 0 38.0711 0 37.9998 0C37.9284 0 37.8592 0 37.7899 0.00209858C37.7186 0.00209858 37.6493 0.00629573 37.5801 0.0104929C36.1279 0.0734502 34.7177 0.455391 33.3621 1.12484C30.2038 2.68618 27.3561 5.80467 25.0372 10.048C24.9008 10.2977 24.7665 10.5516 24.6322 10.8098C22.6953 14.5662 21.1571 19.1348 20.1582 24.2344C20.1057 24.5135 20.0532 24.7926 20.0008 25.0738C19.2663 29.1094 18.8655 33.4618 18.8655 38.001C18.8655 38.0787 18.8655 38.1563 18.8676 38.234H19.707C19.7049 38.1563 19.7049 38.0787 19.7049 38.001C19.7049 33.6234 20.0784 29.3612 20.794 25.3634C20.8444 25.0843 20.8968 24.8052 20.9514 24.5282C21.8852 19.6973 23.3248 15.2693 25.2198 11.5065C25.3016 11.3449 25.3835 11.1854 25.4653 11.028C25.5996 10.7699 25.736 10.516 25.8745 10.2662C27.4253 7.46674 29.1755 5.23805 31.0915 3.62844C33.1648 1.88662 35.3473 0.952754 37.5801 0.849924C37.6493 0.845727 37.7186 0.843628 37.7899 0.84153C37.8592 0.84153 37.9284 0.839431 37.9998 0.839431C38.0711 0.839431 38.1404 0.84153 38.2096 0.84153C38.281 0.84153 38.3502 0.845727 38.4195 0.849924C40.6523 0.952754 42.8348 1.88662 44.9081 3.62844C46.8241 5.23805 48.5742 7.46674 50.125 10.2662C50.2635 10.516 50.3999 10.7699 50.5342 11.028C50.6161 11.1854 50.6979 11.3449 50.7798 11.5065C52.6726 15.2693 54.1143 19.6973 55.0461 24.5282C55.1006 24.8052 55.1531 25.0843 55.2035 25.3634C55.919 29.3612 56.2947 33.6234 56.2947 38.001C56.2947 38.0787 56.2947 38.1563 56.2926 38.234H57.132C57.1341 38.1563 57.1341 38.0787 57.1341 38.001C57.1341 33.4618 56.7333 29.1094 55.9988 25.0738ZM37.9998 75.1606C37.8592 75.1606 37.7186 75.1564 37.5801 75.1501V75.9895C37.7186 75.9979 37.8592 76 37.9998 76C38.1404 76 38.281 75.9979 38.4195 75.9895V75.1501C38.281 75.1564 38.1404 75.1606 37.9998 75.1606Z" fill="#DF2A1E"/>
<path d="M38.42 0V34.0557C38.2815 34.041 38.143 34.0326 38.0003 34.0326C37.8576 34.0326 37.7191 34.041 37.5806 34.0557V0H38.42Z" fill="#DF2A1E"/>
<path d="M38.42 47.2831V53.1738C38.2815 53.1591 38.143 53.1507 38.0003 53.1507C37.8576 53.1507 37.7191 53.1591 37.5806 53.1738V47.2831H38.42Z" fill="#DF2A1E"/>
<path d="M34.0863 37.4954C34.0653 37.6528 34.0549 37.8143 34.0549 37.978C34.0549 38.0977 34.0612 38.2173 34.0716 38.3348H25.7258V37.4954H34.0863Z" fill="#DF2A1E"/>
<path d="M50.2743 37.4954V38.3348H41.9285C41.939 38.2173 41.9453 38.0977 41.9453 37.978C41.9453 37.8143 41.9348 37.6528 41.9138 37.4954H50.2743Z" fill="#DF2A1E"/>
<path d="M38 28.7883C32.9131 28.7883 28.7896 32.9141 28.7896 38.0011C28.7896 42.4878 31.9961 46.2254 36.2435 47.0439V41.4973C34.9634 40.8552 34.0862 39.531 34.0862 38.0011C34.0862 35.8396 35.8385 34.0872 38 34.0872C40.1614 34.0872 41.9137 35.8396 41.9137 38.0011C41.9137 39.4869 41.0848 40.7796 39.8655 41.4428V47.0229C44.0584 46.1604 47.2104 42.4501 47.2104 38.0011C47.2104 32.9141 43.0868 28.7883 38 28.7883Z" fill="#DF2A1E"/>
</g>
<path d="M105.721 30.1758L109.492 17.5092H113.164L107.59 33.5184H105.171L105.721 30.1758ZM102.246 17.5092L106.006 30.1758L106.578 33.5184H104.137L98.5955 17.5092H102.246ZM118.167 17.5092V33.5184H114.88V17.5092H118.167ZM131.999 30.9455V33.5184H123.478V30.9455H131.999ZM124.556 17.5092V33.5184H121.257V17.5092H124.556ZM130.889 24.0294V26.5364H123.478V24.0294H130.889ZM131.988 17.5092V20.0931H123.478V17.5092H131.988ZM127.733 13.177L131.054 16.2337V16.3657H128.536L126.81 14.7603L125.105 16.3657H122.631V16.2007L125.897 13.177H127.733ZM125.061 35.9924C125.061 35.5672 125.223 35.2117 125.545 34.9258C125.868 34.6473 126.3 34.508 126.843 34.508C127.378 34.508 127.807 34.6473 128.129 34.9258C128.459 35.2117 128.624 35.5672 128.624 35.9924C128.624 36.4102 128.459 36.7621 128.129 37.0479C127.807 37.3338 127.378 37.4768 126.843 37.4768C126.3 37.4768 125.868 37.3338 125.545 37.0479C125.223 36.7621 125.061 36.4102 125.061 35.9924ZM146.953 17.5092V33.5184H143.655L137.222 22.787V33.5184H133.924V17.5092H137.222L143.666 28.2516V17.5092H146.953ZM164.711 28.2077H167.998C167.932 29.2852 167.635 30.2418 167.108 31.0775C166.587 31.9131 165.858 32.5655 164.92 33.0346C163.989 33.5038 162.867 33.7383 161.555 33.7383C160.529 33.7383 159.609 33.5624 158.795 33.2106C157.982 32.8514 157.285 32.3383 156.706 31.6712C156.134 31.0042 155.698 30.1978 155.398 29.2522C155.097 28.3066 154.947 27.2474 154.947 26.0746V24.964C154.947 23.7912 155.101 22.732 155.409 21.7864C155.724 20.8334 156.171 20.0234 156.75 19.3564C157.336 18.6893 158.036 18.1762 158.85 17.817C159.664 17.4579 160.573 17.2783 161.577 17.2783C162.911 17.2783 164.036 17.5202 164.953 18.004C165.876 18.4878 166.591 19.1548 167.097 20.0051C167.61 20.8554 167.918 21.823 168.02 22.9079H164.722C164.685 22.2628 164.557 21.7167 164.337 21.2696C164.117 20.8151 163.783 20.4743 163.336 20.247C162.896 20.0125 162.31 19.8952 161.577 19.8952C161.027 19.8952 160.547 19.9978 160.137 20.203C159.726 20.4083 159.382 20.7198 159.103 21.1376C158.825 21.5555 158.616 22.0832 158.476 22.721C158.344 23.3514 158.278 24.0917 158.278 24.942V26.0746C158.278 26.9029 158.341 27.6322 158.465 28.2626C158.59 28.8857 158.781 29.4135 159.037 29.846C159.301 30.2711 159.638 30.5937 160.049 30.8136C160.466 31.0261 160.969 31.1324 161.555 31.1324C162.244 31.1324 162.812 31.0225 163.259 30.8026C163.706 30.5827 164.047 30.2565 164.282 29.824C164.524 29.3915 164.667 28.8527 164.711 28.2077ZM183.315 25.14V25.8986C183.315 27.1155 183.15 28.2077 182.82 29.1753C182.49 30.1429 182.025 30.9675 181.424 31.6492C180.823 32.3236 180.104 32.8404 179.269 33.1996C178.44 33.5587 177.52 33.7383 176.509 33.7383C175.504 33.7383 174.585 33.5587 173.749 33.1996C172.921 32.8404 172.202 32.3236 171.594 31.6492C170.985 30.9675 170.513 30.1429 170.175 29.1753C169.846 28.2077 169.681 27.1155 169.681 25.8986V25.14C169.681 23.9158 169.846 22.8236 170.175 21.8633C170.505 20.8957 170.971 20.0711 171.572 19.3894C172.18 18.7077 172.899 18.1872 173.727 17.828C174.563 17.4689 175.482 17.2893 176.487 17.2893C177.498 17.2893 178.418 17.4689 179.247 17.828C180.082 18.1872 180.801 18.7077 181.402 19.3894C182.01 20.0711 182.479 20.8957 182.809 21.8633C183.146 22.8236 183.315 23.9158 183.315 25.14ZM179.983 25.8986V25.118C179.983 24.2677 179.906 23.52 179.752 22.8749C179.598 22.2299 179.371 21.6874 179.071 21.2476C178.77 20.8078 178.404 20.4779 177.971 20.258C177.539 20.0308 177.044 19.9172 176.487 19.9172C175.93 19.9172 175.435 20.0308 175.002 20.258C174.577 20.4779 174.214 20.8078 173.914 21.2476C173.621 21.6874 173.397 22.2299 173.243 22.8749C173.089 23.52 173.012 24.2677 173.012 25.118V25.8986C173.012 26.7416 173.089 27.4893 173.243 28.1417C173.397 28.7868 173.624 29.3329 173.925 29.78C174.225 30.2198 174.592 30.5533 175.024 30.7806C175.457 31.0078 175.952 31.1214 176.509 31.1214C177.066 31.1214 177.561 31.0078 177.993 30.7806C178.426 30.5533 178.788 30.2198 179.082 29.78C179.375 29.3329 179.598 28.7868 179.752 28.1417C179.906 27.4893 179.983 26.7416 179.983 25.8986ZM177.399 13.21L180.72 16.2667V16.3986H178.202L176.476 14.7933L174.771 16.3986H172.297V16.2337L175.563 13.21H177.399ZM198.719 17.5092V33.5184H195.421L188.988 22.787V33.5184H185.69V17.5092H188.988L195.432 28.2516V17.5092H198.719ZM214.278 25.151V31.4953C214.029 31.7958 213.644 32.122 213.123 32.4739C212.603 32.8184 211.932 33.1153 211.111 33.3645C210.29 33.6137 209.297 33.7383 208.131 33.7383C207.098 33.7383 206.156 33.5697 205.306 33.2326C204.455 32.888 203.722 32.3859 203.107 31.7262C202.498 31.0665 202.029 30.2601 201.699 29.3072C201.369 28.3469 201.204 27.2511 201.204 26.0196V25.019C201.204 23.7875 201.362 22.6917 201.677 21.7314C202 20.7711 202.458 19.9611 203.052 19.3014C203.645 18.6417 204.353 18.1396 205.174 17.7951C205.995 17.4505 206.907 17.2783 207.912 17.2783C209.304 17.2783 210.448 17.5055 211.342 17.96C212.236 18.4071 212.918 19.0302 213.387 19.8292C213.864 20.6209 214.157 21.5298 214.267 22.556H211.067C210.987 22.0136 210.833 21.5408 210.605 21.1376C210.378 20.7345 210.052 20.4193 209.627 20.192C209.209 19.9648 208.667 19.8512 207.999 19.8512C207.45 19.8512 206.959 19.9648 206.526 20.192C206.101 20.412 205.742 20.7381 205.449 21.1706C205.155 21.6031 204.932 22.1382 204.778 22.776C204.624 23.4137 204.547 24.154 204.547 24.997V26.0196C204.547 26.8552 204.628 27.5956 204.789 28.2407C204.95 28.8784 205.188 29.4172 205.504 29.857C205.826 30.2895 206.222 30.6157 206.691 30.8356C207.16 31.0555 207.706 31.1654 208.329 31.1654C208.85 31.1654 209.282 31.1214 209.627 31.0335C209.979 30.9455 210.261 30.8392 210.473 30.7146C210.693 30.5827 210.862 30.4581 210.979 30.3408V27.504H207.966V25.151H214.278ZM235.576 17.5092V33.5184H232.277L225.845 22.787V33.5184H222.546V17.5092H225.845L232.288 28.2516V17.5092H235.576ZM251.134 25.151V31.4953C250.885 31.7958 250.5 32.122 249.98 32.4739C249.459 32.8184 248.789 33.1153 247.968 33.3645C247.147 33.6137 246.153 33.7383 244.988 33.7383C243.954 33.7383 243.012 33.5697 242.162 33.2326C241.312 32.888 240.579 32.3859 239.963 31.7262C239.355 31.0665 238.885 30.2601 238.556 29.3072C238.226 28.3469 238.061 27.2511 238.061 26.0196V25.019C238.061 23.7875 238.218 22.6917 238.534 21.7314C238.856 20.7711 239.314 19.9611 239.908 19.3014C240.502 18.6417 241.209 18.1396 242.03 17.7951C242.851 17.4505 243.764 17.2783 244.768 17.2783C246.161 17.2783 247.304 17.5055 248.199 17.96C249.093 18.4071 249.775 19.0302 250.244 19.8292C250.72 20.6209 251.013 21.5298 251.123 22.556H247.924C247.843 22.0136 247.689 21.5408 247.462 21.1376C247.235 20.7345 246.908 20.4193 246.483 20.192C246.065 19.9648 245.523 19.8512 244.856 19.8512C244.306 19.8512 243.815 19.9648 243.383 20.192C242.957 20.412 242.598 20.7381 242.305 21.1706C242.012 21.6031 241.788 22.1382 241.634 22.776C241.48 23.4137 241.403 24.154 241.403 24.997V26.0196C241.403 26.8552 241.484 27.5956 241.645 28.2407C241.807 28.8784 242.045 29.4172 242.36 29.857C242.683 30.2895 243.078 30.6157 243.548 30.8356C244.017 31.0555 244.563 31.1654 245.186 31.1654C245.706 31.1654 246.139 31.1214 246.483 31.0335C246.835 30.9455 247.117 30.8392 247.33 30.7146C247.55 30.5827 247.718 30.4581 247.836 30.3408V27.504H244.823V25.151H251.134ZM264.472 24.0294V26.6023H256.115V24.0294H264.472ZM257.094 17.5092V33.5184H253.795V17.5092H257.094ZM266.825 17.5092V33.5184H263.537V17.5092H266.825ZM280.437 30.9455V33.5184H271.916V30.9455H280.437ZM272.993 17.5092V33.5184H269.694V17.5092H272.993ZM279.326 24.0294V26.5364H271.916V24.0294H279.326ZM280.426 17.5092V20.0931H271.916V17.5092H280.426ZM276.171 13.177L279.491 16.2337V16.3657H276.973L275.247 14.7603L273.543 16.3657H271.069V16.2007L274.335 13.177H276.171ZM273.499 35.9924C273.499 35.5672 273.66 35.2117 273.983 34.9258C274.305 34.6473 274.738 34.508 275.28 34.508C275.815 34.508 276.244 34.6473 276.567 34.9258C276.896 35.2117 277.061 35.5672 277.061 35.9924C277.061 36.4102 276.896 36.7621 276.567 37.0479C276.244 37.3338 275.815 37.4768 275.28 37.4768C274.738 37.4768 274.305 37.3338 273.983 37.0479C273.66 36.7621 273.499 36.4102 273.499 35.9924Z" fill="#22313F"/>
<path d="M99.9122 47.4746H103.887C104.789 47.4746 105.55 47.6121 106.171 47.8869C106.798 48.1618 107.274 48.5687 107.598 49.1074C107.928 49.6407 108.093 50.2977 108.093 51.0784C108.093 51.6281 107.98 52.1312 107.755 52.5875C107.535 53.0383 107.216 53.4231 106.798 53.742C106.386 54.0554 105.891 54.289 105.314 54.4429L104.868 54.6161H101.133L101.116 53.3214H103.937C104.508 53.3214 104.984 53.2225 105.363 53.0245C105.743 52.8211 106.028 52.549 106.221 52.2081C106.413 51.8673 106.509 51.4907 106.509 51.0784C106.509 50.6165 106.419 50.2125 106.237 49.8661C106.056 49.5198 105.77 49.2531 105.38 49.0662C104.995 48.8738 104.497 48.7776 103.887 48.7776H101.504V59.4816H99.9122V47.4746ZM106.93 59.4816L104.011 54.0389L105.668 54.0306L108.629 59.3826V59.4816H106.93ZM117.947 58.1869V59.4816H111.589V58.1869H117.947ZM111.911 47.4746V59.4816H110.319V47.4746H111.911ZM117.106 52.6369V53.9317H111.589V52.6369H117.106ZM117.865 47.4746V48.7776H111.589V47.4746H117.865ZM126.318 56.4468C126.318 56.1665 126.274 55.9191 126.186 55.7047C126.103 55.4848 125.955 55.2868 125.74 55.1109C125.531 54.935 125.24 54.7673 124.866 54.6079C124.498 54.4484 124.031 54.2863 123.464 54.1213C122.871 53.9454 122.335 53.7502 121.856 53.5358C121.378 53.3159 120.968 53.0658 120.627 52.7854C120.287 52.505 120.025 52.1834 119.844 51.8205C119.663 51.4577 119.572 51.0426 119.572 50.5753C119.572 50.108 119.668 49.6764 119.861 49.2806C120.053 48.8848 120.328 48.5412 120.685 48.2498C121.048 47.9529 121.48 47.722 121.98 47.5571C122.48 47.3922 123.038 47.3097 123.654 47.3097C124.556 47.3097 125.32 47.4829 125.947 47.8292C126.579 48.1701 127.06 48.6181 127.39 49.1734C127.72 49.7232 127.884 50.3114 127.884 50.9382H126.301C126.301 50.4874 126.205 50.0888 126.012 49.7424C125.82 49.3906 125.529 49.1157 125.138 48.9178C124.748 48.7144 124.253 48.6126 123.654 48.6126C123.088 48.6126 122.62 48.6979 122.252 48.8683C121.884 49.0387 121.609 49.2696 121.427 49.561C121.251 49.8524 121.164 50.185 121.164 50.5588C121.164 50.8117 121.216 51.0426 121.32 51.2515C121.43 51.4549 121.598 51.6446 121.823 51.8205C122.054 51.9965 122.346 52.1587 122.697 52.3071C123.055 52.4555 123.481 52.5985 123.976 52.7359C124.657 52.9283 125.246 53.1427 125.74 53.3791C126.235 53.6155 126.642 53.8822 126.961 54.179C127.285 54.4704 127.524 54.803 127.678 55.1769C127.838 55.5452 127.917 55.963 127.917 56.4304C127.917 56.9196 127.818 57.3622 127.621 57.758C127.423 58.1539 127.14 58.492 126.771 58.7724C126.403 59.0527 125.96 59.2699 125.443 59.4238C124.932 59.5723 124.36 59.6465 123.728 59.6465C123.173 59.6465 122.626 59.5695 122.087 59.4156C121.554 59.2617 121.067 59.0308 120.627 58.7229C120.193 58.415 119.844 58.0357 119.58 57.5849C119.322 57.1286 119.193 56.6008 119.193 56.0015H120.776C120.776 56.4139 120.856 56.7685 121.015 57.0653C121.175 57.3567 121.392 57.5986 121.667 57.791C121.947 57.9834 122.263 58.1264 122.615 58.2198C122.972 58.3078 123.343 58.3518 123.728 58.3518C124.283 58.3518 124.754 58.2748 125.138 58.1209C125.523 57.967 125.815 57.747 126.012 57.4612C126.216 57.1753 126.318 56.8372 126.318 56.4468ZM137.574 58.1869V59.4816H131.216V58.1869H137.574ZM131.538 47.4746V59.4816H129.946V47.4746H131.538ZM136.733 52.6369V53.9317H131.216V52.6369H136.733ZM137.492 47.4746V48.7776H131.216V47.4746H137.492ZM143.99 48.5384L140.015 59.4816H138.391L142.967 47.4746H144.015L143.99 48.5384ZM147.322 59.4816L143.338 48.5384L143.314 47.4746H144.361L148.954 59.4816H147.322ZM147.115 55.0367V56.3396H140.37V55.0367H147.115ZM150.562 47.4746H154.537C155.439 47.4746 156.2 47.6121 156.822 47.8869C157.448 48.1618 157.924 48.5687 158.248 49.1074C158.578 49.6407 158.743 50.2977 158.743 51.0784C158.743 51.6281 158.63 52.1312 158.405 52.5875C158.185 53.0383 157.866 53.4231 157.448 53.742C157.036 54.0554 156.541 54.289 155.964 54.4429L155.519 54.6161H151.783L151.766 53.3214H154.587C155.158 53.3214 155.634 53.2225 156.013 53.0245C156.393 52.8211 156.679 52.549 156.871 52.2081C157.063 51.8673 157.16 51.4907 157.16 51.0784C157.16 50.6165 157.069 50.2125 156.887 49.8661C156.706 49.5198 156.42 49.2531 156.03 49.0662C155.645 48.8738 155.147 48.7776 154.537 48.7776H152.154V59.4816H150.562V47.4746ZM157.58 59.4816L154.661 54.0389L156.318 54.0306L159.279 59.3826V59.4816H157.58ZM168.218 55.6634H169.802C169.719 56.4221 169.502 57.1011 169.15 57.7003C168.798 58.2996 168.301 58.7751 167.657 59.127C167.014 59.4733 166.212 59.6465 165.249 59.6465C164.546 59.6465 163.905 59.5146 163.328 59.2507C162.756 58.9868 162.264 58.6129 161.852 58.1291C161.44 57.6398 161.121 57.0543 160.895 56.3726C160.675 55.6854 160.565 54.9212 160.565 54.0801V52.8843C160.565 52.0432 160.675 51.2818 160.895 50.6001C161.121 49.9128 161.442 49.3246 161.86 48.8353C162.283 48.346 162.792 47.9694 163.386 47.7055C163.979 47.4416 164.647 47.3097 165.39 47.3097C166.297 47.3097 167.064 47.4801 167.69 47.821C168.317 48.1618 168.804 48.6346 169.15 49.2394C169.502 49.8386 169.719 50.5341 169.802 51.3258H168.218C168.141 50.765 167.998 50.2839 167.789 49.8826C167.58 49.4758 167.284 49.1624 166.899 48.9425C166.514 48.7226 166.011 48.6126 165.39 48.6126C164.856 48.6126 164.386 48.7144 163.979 48.9178C163.578 49.1212 163.24 49.4098 162.965 49.7837C162.696 50.1575 162.492 50.6056 162.355 51.1278C162.217 51.6501 162.149 52.2301 162.149 52.8679V54.0801C162.149 54.6683 162.209 55.2209 162.33 55.7376C162.457 56.2544 162.646 56.708 162.899 57.0983C163.152 57.4887 163.474 57.7965 163.864 58.0219C164.254 58.2418 164.716 58.3518 165.249 58.3518C165.926 58.3518 166.464 58.2446 166.866 58.0302C167.267 57.8158 167.569 57.5079 167.773 57.1066C167.982 56.7052 168.13 56.2242 168.218 55.6634ZM179.813 52.6369V53.9317H173.315V52.6369H179.813ZM173.562 47.4746V59.4816H171.97V47.4746H173.562ZM181.198 47.4746V59.4816H179.615V47.4746H181.198ZM189.923 47.4746V59.4816H188.331V47.4746H189.923ZM202.054 47.4746V59.4816H200.454L194.409 50.2207V59.4816H192.818V47.4746H194.409L200.479 56.7602V47.4746H202.054ZM211.273 56.4468C211.273 56.1665 211.229 55.9191 211.141 55.7047C211.059 55.4848 210.91 55.2868 210.696 55.1109C210.487 54.935 210.196 54.7673 209.822 54.6079C209.454 54.4484 208.986 54.2863 208.42 54.1213C207.826 53.9454 207.29 53.7502 206.812 53.5358C206.334 53.3159 205.924 53.0658 205.583 52.7854C205.242 52.505 204.981 52.1834 204.8 51.8205C204.618 51.4577 204.528 51.0426 204.528 50.5753C204.528 50.108 204.624 49.6764 204.816 49.2806C205.009 48.8848 205.284 48.5412 205.641 48.2498C206.004 47.9529 206.435 47.722 206.936 47.5571C207.436 47.3922 207.994 47.3097 208.61 47.3097C209.511 47.3097 210.276 47.4829 210.902 47.8292C211.534 48.1701 212.016 48.6181 212.345 49.1734C212.675 49.7232 212.84 50.3114 212.84 50.9382H211.257C211.257 50.4874 211.161 50.0888 210.968 49.7424C210.776 49.3906 210.484 49.1157 210.094 48.9178C209.704 48.7144 209.209 48.6126 208.61 48.6126C208.043 48.6126 207.576 48.6979 207.208 48.8683C206.839 49.0387 206.565 49.2696 206.383 49.561C206.207 49.8524 206.119 50.185 206.119 50.5588C206.119 50.8117 206.171 51.0426 206.276 51.2515C206.386 51.4549 206.554 51.6446 206.779 51.8205C207.01 51.9965 207.301 52.1587 207.653 52.3071C208.01 52.4555 208.437 52.5985 208.931 52.7359C209.613 52.9283 210.201 53.1427 210.696 53.3791C211.191 53.6155 211.598 53.8822 211.917 54.179C212.241 54.4704 212.48 54.803 212.634 55.1769C212.793 55.5452 212.873 55.963 212.873 56.4304C212.873 56.9196 212.774 57.3622 212.576 57.758C212.378 58.1539 212.095 58.492 211.727 58.7724C211.359 59.0527 210.916 59.2699 210.399 59.4238C209.888 59.5723 209.316 59.6465 208.684 59.6465C208.129 59.6465 207.582 59.5695 207.043 59.4156C206.51 59.2617 206.023 59.0308 205.583 58.7229C205.149 58.415 204.8 58.0357 204.536 57.5849C204.278 57.1286 204.148 56.6008 204.148 56.0015H205.732C205.732 56.4139 205.811 56.7685 205.971 57.0653C206.13 57.3567 206.347 57.5986 206.622 57.791C206.903 57.9834 207.219 58.1264 207.571 58.2198C207.928 58.3078 208.299 58.3518 208.684 58.3518C209.239 58.3518 209.709 58.2748 210.094 58.1209C210.479 57.967 210.77 57.747 210.968 57.4612C211.172 57.1753 211.273 56.8372 211.273 56.4468ZM219.338 47.4746V59.4816H217.772V47.4746H219.338ZM223.198 47.4746V48.7776H213.92V47.4746H223.198ZM226.686 47.4746V59.4816H225.095V47.4746H226.686ZM233.77 47.4746V59.4816H232.203V47.4746H233.77ZM237.629 47.4746V48.7776H228.352V47.4746H237.629ZM246.28 47.4746H247.863V55.5975C247.863 56.4991 247.663 57.2495 247.261 57.8488C246.86 58.448 246.327 58.8988 245.661 59.2012C245.002 59.4981 244.284 59.6465 243.509 59.6465C242.695 59.6465 241.959 59.4981 241.299 59.2012C240.645 58.8988 240.125 58.448 239.74 57.8488C239.361 57.2495 239.171 56.4991 239.171 55.5975V47.4746H240.746V55.5975C240.746 56.2242 240.862 56.741 241.093 57.1478C241.324 57.5546 241.645 57.857 242.058 58.0549C242.475 58.2528 242.959 58.3518 243.509 58.3518C244.064 58.3518 244.548 58.2528 244.96 58.0549C245.378 57.857 245.703 57.5546 245.933 57.1478C246.164 56.741 246.28 56.2242 246.28 55.5975V47.4746ZM254.799 47.4746V59.4816H253.232V47.4746H254.799ZM258.658 47.4746V48.7776H249.381V47.4746H258.658ZM268.067 58.1869V59.4816H261.709V58.1869H268.067ZM262.031 47.4746V59.4816H260.439V47.4746H262.031ZM267.226 52.6369V53.9317H261.709V52.6369H267.226ZM267.985 47.4746V48.7776H261.709V47.4746H267.985ZM283.472 53.0988V53.8574C283.472 54.7591 283.359 55.5672 283.134 56.2819C282.908 56.9966 282.584 57.6041 282.16 58.1044C281.737 58.6047 281.229 58.9868 280.635 59.2507C280.047 59.5146 279.387 59.6465 278.656 59.6465C277.947 59.6465 277.295 59.5146 276.701 59.2507C276.113 58.9868 275.602 58.6047 275.167 58.1044C274.739 57.6041 274.406 56.9966 274.17 56.2819C273.933 55.5672 273.815 54.7591 273.815 53.8574V53.0988C273.815 52.1971 273.93 51.3917 274.161 50.6825C274.398 49.9678 274.73 49.3603 275.159 48.86C275.588 48.3543 276.097 47.9694 276.685 47.7055C277.279 47.4416 277.93 47.3097 278.639 47.3097C279.37 47.3097 280.03 47.4416 280.618 47.7055C281.212 47.9694 281.721 48.3543 282.144 48.86C282.573 49.3603 282.9 49.9678 283.125 50.6825C283.356 51.3917 283.472 52.1971 283.472 53.0988ZM281.897 53.8574V53.0823C281.897 52.3676 281.822 51.7353 281.674 51.1856C281.531 50.6358 281.319 50.174 281.039 49.8001C280.759 49.4263 280.415 49.1432 280.008 48.9508C279.607 48.7583 279.151 48.6621 278.639 48.6621C278.144 48.6621 277.696 48.7583 277.295 48.9508C276.899 49.1432 276.558 49.4263 276.272 49.8001C275.992 50.174 275.775 50.6358 275.621 51.1856C275.467 51.7353 275.39 52.3676 275.39 53.0823V53.8574C275.39 54.5776 275.467 55.2154 275.621 55.7706C275.775 56.3204 275.995 56.785 276.281 57.1643C276.572 57.5381 276.916 57.8213 277.312 58.0137C277.713 58.2061 278.161 58.3023 278.656 58.3023C279.172 58.3023 279.632 58.2061 280.033 58.0137C280.434 57.8213 280.772 57.5381 281.047 57.1643C281.328 56.785 281.539 56.3204 281.682 55.7706C281.825 55.2154 281.897 54.5776 281.897 53.8574ZM287.447 47.4746V59.4816H285.855V47.4746H287.447ZM292.477 52.8761V54.179H287.1V52.8761H292.477ZM293.293 47.4746V48.7776H287.1V47.4746H293.293ZM303.486 47.4746V59.4816H301.919V47.4746H303.486ZM307.345 47.4746V48.7776H298.068V47.4746H307.345ZM316.755 58.1869V59.4816H310.397V58.1869H316.755ZM310.718 47.4746V59.4816H309.127V47.4746H310.718ZM315.914 52.6369V53.9317H310.397V52.6369H315.914ZM316.672 47.4746V48.7776H310.397V47.4746H316.672ZM325.974 55.6634H327.558C327.475 56.4221 327.258 57.1011 326.906 57.7003C326.554 58.2996 326.057 58.7751 325.414 59.127C324.77 59.4733 323.968 59.6465 323.006 59.6465C322.302 59.6465 321.661 59.5146 321.084 59.2507C320.512 58.9868 320.02 58.6129 319.608 58.1291C319.196 57.6398 318.877 57.0543 318.651 56.3726C318.431 55.6854 318.322 54.9212 318.322 54.0801V52.8843C318.322 52.0432 318.431 51.2818 318.651 50.6001C318.877 49.9128 319.198 49.3246 319.616 48.8353C320.04 48.346 320.548 47.9694 321.142 47.7055C321.736 47.4416 322.404 47.3097 323.146 47.3097C324.053 47.3097 324.82 47.4801 325.447 47.821C326.073 48.1618 326.56 48.6346 326.906 49.2394C327.258 49.8386 327.475 50.5341 327.558 51.3258H325.974C325.897 50.765 325.754 50.2839 325.545 49.8826C325.337 49.4758 325.04 49.1624 324.655 48.9425C324.27 48.7226 323.767 48.6126 323.146 48.6126C322.612 48.6126 322.142 48.7144 321.736 48.9178C321.334 49.1212 320.996 49.4098 320.721 49.7837C320.452 50.1575 320.248 50.6056 320.111 51.1278C319.974 51.6501 319.905 52.2301 319.905 52.8679V54.0801C319.905 54.6683 319.965 55.2209 320.086 55.7376C320.213 56.2544 320.402 56.708 320.655 57.0983C320.908 57.4887 321.23 57.7965 321.62 58.0219C322.01 58.2418 322.472 58.3518 323.006 58.3518C323.682 58.3518 324.221 58.2446 324.622 58.0302C325.023 57.8158 325.326 57.5079 325.529 57.1066C325.738 56.7052 325.886 56.2242 325.974 55.6634ZM337.569 52.6369V53.9317H331.071V52.6369H337.569ZM331.318 47.4746V59.4816H329.726V47.4746H331.318ZM338.954 47.4746V59.4816H337.371V47.4746H338.954ZM351.019 47.4746V59.4816H349.419L343.374 50.2207V59.4816H341.783V47.4746H343.374L349.444 56.7602V47.4746H351.019ZM363.084 53.0988V53.8574C363.084 54.7591 362.971 55.5672 362.746 56.2819C362.52 56.9966 362.196 57.6041 361.772 58.1044C361.349 58.6047 360.841 58.9868 360.247 59.2507C359.659 59.5146 358.999 59.6465 358.268 59.6465C357.558 59.6465 356.907 59.5146 356.313 59.2507C355.725 58.9868 355.214 58.6047 354.779 58.1044C354.351 57.6041 354.018 56.9966 353.782 56.2819C353.545 55.5672 353.427 54.7591 353.427 53.8574V53.0988C353.427 52.1971 353.542 51.3917 353.773 50.6825C354.01 49.9678 354.342 49.3603 354.771 48.86C355.2 48.3543 355.709 47.9694 356.297 47.7055C356.891 47.4416 357.542 47.3097 358.251 47.3097C358.982 47.3097 359.642 47.4416 360.23 47.7055C360.824 47.9694 361.333 48.3543 361.756 48.86C362.185 49.3603 362.512 49.9678 362.737 50.6825C362.968 51.3917 363.084 52.1971 363.084 53.0988ZM361.509 53.8574V53.0823C361.509 52.3676 361.434 51.7353 361.286 51.1856C361.143 50.6358 360.931 50.174 360.651 49.8001C360.371 49.4263 360.027 49.1432 359.62 48.9508C359.219 48.7583 358.762 48.6621 358.251 48.6621C357.756 48.6621 357.308 48.7583 356.907 48.9508C356.511 49.1432 356.17 49.4263 355.884 49.8001C355.604 50.174 355.387 50.6358 355.233 51.1856C355.079 51.7353 355.002 52.3676 355.002 53.0823V53.8574C355.002 54.5776 355.079 55.2154 355.233 55.7706C355.387 56.3204 355.607 56.785 355.893 57.1643C356.184 57.5381 356.528 57.8213 356.924 58.0137C357.325 58.2061 357.773 58.3023 358.268 58.3023C358.784 58.3023 359.244 58.2061 359.645 58.0137C360.046 57.8213 360.384 57.5381 360.659 57.1643C360.94 56.785 361.151 56.3204 361.294 55.7706C361.437 55.2154 361.509 54.5776 361.509 53.8574ZM372.749 58.1869V59.4816H366.745V58.1869H372.749ZM367.058 47.4746V59.4816H365.467V47.4746H367.058ZM383.271 53.0988V53.8574C383.271 54.7591 383.158 55.5672 382.933 56.2819C382.708 56.9966 382.383 57.6041 381.96 58.1044C381.537 58.6047 381.028 58.9868 380.434 59.2507C379.846 59.5146 379.186 59.6465 378.455 59.6465C377.746 59.6465 377.095 59.5146 376.501 59.2507C375.913 58.9868 375.401 58.6047 374.967 58.1044C374.538 57.6041 374.205 56.9966 373.969 56.2819C373.733 55.5672 373.614 54.7591 373.614 53.8574V53.0988C373.614 52.1971 373.73 51.3917 373.961 50.6825C374.197 49.9678 374.53 49.3603 374.959 48.86C375.387 48.3543 375.896 47.9694 376.484 47.7055C377.078 47.4416 377.73 47.3097 378.439 47.3097C379.17 47.3097 379.83 47.4416 380.418 47.7055C381.012 47.9694 381.52 48.3543 381.943 48.86C382.372 49.3603 382.699 49.9678 382.925 50.6825C383.156 51.3917 383.271 52.1971 383.271 53.0988ZM381.696 53.8574V53.0823C381.696 52.3676 381.622 51.7353 381.473 51.1856C381.33 50.6358 381.119 50.174 380.838 49.8001C380.558 49.4263 380.214 49.1432 379.808 48.9508C379.406 48.7583 378.95 48.6621 378.439 48.6621C377.944 48.6621 377.496 48.7583 377.095 48.9508C376.699 49.1432 376.358 49.4263 376.072 49.8001C375.792 50.174 375.574 50.6358 375.42 51.1856C375.267 51.7353 375.19 52.3676 375.19 53.0823V53.8574C375.19 54.5776 375.267 55.2154 375.42 55.7706C375.574 56.3204 375.794 56.785 376.08 57.1643C376.372 57.5381 376.715 57.8213 377.111 58.0137C377.512 58.2061 377.96 58.3023 378.455 58.3023C378.972 58.3023 379.431 58.2061 379.832 58.0137C380.234 57.8213 380.572 57.5381 380.847 57.1643C381.127 56.785 381.339 56.3204 381.482 55.7706C381.625 55.2154 381.696 54.5776 381.696 53.8574ZM394.528 53.5028V57.8982C394.379 58.1181 394.143 58.3655 393.818 58.6404C393.494 58.9098 393.046 59.1462 392.474 59.3496C391.908 59.5475 391.177 59.6465 390.281 59.6465C389.55 59.6465 388.876 59.5201 388.26 59.2672C387.65 59.0088 387.12 58.6349 386.669 58.1456C386.223 57.6508 385.877 57.0516 385.63 56.3479C385.388 55.6387 385.267 54.836 385.267 53.9399V53.008C385.267 52.1119 385.371 51.312 385.58 50.6083C385.795 49.9046 386.108 49.3081 386.52 48.8188C386.933 48.324 387.438 47.9502 388.038 47.6973C388.637 47.4389 389.324 47.3097 390.099 47.3097C391.017 47.3097 391.784 47.4691 392.4 47.788C393.021 48.1014 393.505 48.5357 393.851 49.0909C394.203 49.6462 394.429 50.2784 394.528 50.9876H392.936C392.865 50.5533 392.722 50.1575 392.507 49.8001C392.298 49.4428 391.999 49.1569 391.608 48.9425C391.218 48.7226 390.715 48.6126 390.099 48.6126C389.544 48.6126 389.063 48.7144 388.656 48.9178C388.249 49.1212 387.914 49.4126 387.65 49.7919C387.386 50.1712 387.188 50.6303 387.056 51.1691C386.93 51.7078 386.867 52.3153 386.867 52.9915V53.9399C386.867 54.6326 386.946 55.2511 387.106 55.7954C387.271 56.3396 387.504 56.8042 387.807 57.189C388.109 57.5684 388.469 57.857 388.887 58.0549C389.31 58.2528 389.778 58.3518 390.289 58.3518C390.855 58.3518 391.314 58.3051 391.666 58.2116C392.018 58.1126 392.293 57.9972 392.491 57.8652C392.689 57.7278 392.84 57.5986 392.944 57.4777V54.7893H390.165V53.5028H394.528ZM397.719 47.4746L400.836 53.5028L403.962 47.4746H405.768L401.628 54.9955V59.4816H400.036V54.9955L395.897 47.4746H397.719ZM413.091 47.4746V59.4816H411.499V47.4746H413.091ZM418.121 52.8761V54.179H412.744V52.8761H418.121ZM418.937 47.4746V48.7776H412.744V47.4746H418.937ZM430.078 53.0988V53.8574C430.078 54.7591 429.966 55.5672 429.74 56.2819C429.515 56.9966 429.191 57.6041 428.767 58.1044C428.344 58.6047 427.835 58.9868 427.242 59.2507C426.653 59.5146 425.994 59.6465 425.262 59.6465C424.553 59.6465 423.902 59.5146 423.308 59.2507C422.72 58.9868 422.209 58.6047 421.774 58.1044C421.345 57.6041 421.013 56.9966 420.776 56.2819C420.54 55.5672 420.422 54.7591 420.422 53.8574V53.0988C420.422 52.1971 420.537 51.3917 420.768 50.6825C421.005 49.9678 421.337 49.3603 421.766 48.86C422.195 48.3543 422.703 47.9694 423.292 47.7055C423.885 47.4416 424.537 47.3097 425.246 47.3097C425.977 47.3097 426.637 47.4416 427.225 47.7055C427.819 47.9694 428.327 48.3543 428.751 48.86C429.18 49.3603 429.507 49.9678 429.732 50.6825C429.963 51.3917 430.078 52.1971 430.078 53.0988ZM428.503 53.8574V53.0823C428.503 52.3676 428.429 51.7353 428.281 51.1856C428.138 50.6358 427.926 50.174 427.646 49.8001C427.365 49.4263 427.022 49.1432 426.615 48.9508C426.214 48.7583 425.757 48.6621 425.246 48.6621C424.751 48.6621 424.303 48.7583 423.902 48.9508C423.506 49.1432 423.165 49.4263 422.879 49.8001C422.599 50.174 422.382 50.6358 422.228 51.1856C422.074 51.7353 421.997 52.3676 421.997 53.0823V53.8574C421.997 54.5776 422.074 55.2154 422.228 55.7706C422.382 56.3204 422.602 56.785 422.887 57.1643C423.179 57.5381 423.522 57.8213 423.918 58.0137C424.32 58.2061 424.768 58.3023 425.262 58.3023C425.779 58.3023 426.238 58.2061 426.64 58.0137C427.041 57.8213 427.379 57.5381 427.654 57.1643C427.934 56.785 428.146 56.3204 428.289 55.7706C428.432 55.2154 428.503 54.5776 428.503 53.8574ZM432.462 47.4746H436.437C437.338 47.4746 438.1 47.6121 438.721 47.8869C439.348 48.1618 439.823 48.5687 440.147 49.1074C440.477 49.6407 440.642 50.2977 440.642 51.0784C440.642 51.6281 440.53 52.1312 440.304 52.5875C440.084 53.0383 439.765 53.4231 439.348 53.742C438.935 54.0554 438.44 54.289 437.863 54.4429L437.418 54.6161H433.682L433.666 53.3214H436.486C437.058 53.3214 437.533 53.2225 437.913 53.0245C438.292 52.8211 438.578 52.549 438.77 52.2081C438.963 51.8673 439.059 51.4907 439.059 51.0784C439.059 50.6165 438.968 50.2125 438.787 49.8661C438.605 49.5198 438.32 49.2531 437.929 49.0662C437.544 48.8738 437.047 48.7776 436.437 48.7776H434.053V59.4816H432.462V47.4746ZM439.48 59.4816L436.56 54.0389L438.218 54.0306L441.178 59.3826V59.4816H439.48ZM447.561 47.4746H449.103L453.037 57.2633L456.962 47.4746H458.512L453.631 59.4816H452.427L447.561 47.4746ZM447.058 47.4746H448.419L448.641 54.7975V59.4816H447.058V47.4746ZM457.647 47.4746H459.007V59.4816H457.424V54.7975L457.647 47.4746ZM466.396 48.5384L462.421 59.4816H460.797L465.374 47.4746H466.421L466.396 48.5384ZM469.728 59.4816L465.745 48.5384L465.72 47.4746H466.767L471.361 59.4816H469.728ZM469.522 55.0367V56.3396H462.776V55.0367H469.522ZM480.118 55.6634H481.702C481.619 56.4221 481.402 57.1011 481.05 57.7003C480.698 58.2996 480.201 58.7751 479.558 59.127C478.914 59.4733 478.112 59.6465 477.15 59.6465C476.446 59.6465 475.805 59.5146 475.228 59.2507C474.656 58.9868 474.164 58.6129 473.752 58.1291C473.34 57.6398 473.021 57.0543 472.795 56.3726C472.576 55.6854 472.466 54.9212 472.466 54.0801V52.8843C472.466 52.0432 472.576 51.2818 472.795 50.6001C473.021 49.9128 473.343 49.3246 473.76 48.8353C474.184 48.346 474.692 47.9694 475.286 47.7055C475.88 47.4416 476.548 47.3097 477.29 47.3097C478.197 47.3097 478.964 47.4801 479.591 47.821C480.217 48.1618 480.704 48.6346 481.05 49.2394C481.402 49.8386 481.619 50.5341 481.702 51.3258H480.118C480.041 50.765 479.898 50.2839 479.69 49.8826C479.481 49.4758 479.184 49.1624 478.799 48.9425C478.414 48.7226 477.911 48.6126 477.29 48.6126C476.757 48.6126 476.287 48.7144 475.88 48.9178C475.478 49.1212 475.14 49.4098 474.865 49.7837C474.596 50.1575 474.393 50.6056 474.255 51.1278C474.118 51.6501 474.049 52.2301 474.049 52.8679V54.0801C474.049 54.6683 474.109 55.2209 474.23 55.7376C474.357 56.2544 474.547 56.708 474.799 57.0983C475.052 57.4887 475.374 57.7965 475.764 58.0219C476.155 58.2418 476.616 58.3518 477.15 58.3518C477.826 58.3518 478.365 58.2446 478.766 58.0302C479.167 57.8158 479.47 57.5079 479.673 57.1066C479.882 56.7052 480.03 56.2242 480.118 55.6634ZM491.713 52.6369V53.9317H485.215V52.6369H491.713ZM485.462 47.4746V59.4816H483.871V47.4746H485.462ZM493.098 47.4746V59.4816H491.515V47.4746H493.098ZM497.634 47.4746V59.4816H496.042V47.4746H497.634ZM509.765 47.4746V59.4816H508.165L502.12 50.2207V59.4816H500.529V47.4746H502.12L508.19 56.7602V47.4746H509.765ZM520.213 58.1869V59.4816H513.855V58.1869H520.213ZM514.177 47.4746V59.4816H512.585V47.4746H514.177ZM519.372 52.6369V53.9317H513.855V52.6369H519.372ZM520.131 47.4746V48.7776H513.855V47.4746H520.131ZM522.184 47.4746H526.159C527.06 47.4746 527.822 47.6121 528.443 47.8869C529.07 48.1618 529.545 48.5687 529.87 49.1074C530.2 49.6407 530.365 50.2977 530.365 51.0784C530.365 51.6281 530.252 52.1312 530.026 52.5875C529.806 53.0383 529.488 53.4231 529.07 53.742C528.657 54.0554 528.163 54.289 527.585 54.4429L527.14 54.6161H523.404L523.388 53.3214H526.208C526.78 53.3214 527.256 53.2225 527.635 53.0245C528.014 52.8211 528.3 52.549 528.493 52.2081C528.685 51.8673 528.781 51.4907 528.781 51.0784C528.781 50.6165 528.69 50.2125 528.509 49.8661C528.328 49.5198 528.042 49.2531 527.651 49.0662C527.267 48.8738 526.769 48.7776 526.159 48.7776H523.776V59.4816H522.184V47.4746ZM529.202 59.4816L526.282 54.0389L527.94 54.0306L530.901 59.3826V59.4816H529.202ZM532.748 47.4746L535.865 53.5028L538.99 47.4746H540.796L536.657 54.9955V59.4816H535.065V54.9955L530.925 47.4746H532.748Z" fill="#9D9D9D"/>
<defs>
<clipPath id="clip0_111_521">
<rect width="76" height="76" fill="white"/>
</clipPath>
</defs>
</svg>
